<svg xmlns="http://www.w3.org/2000/svg" viewBox="0 0 100 100" width="100" height="100">
  <defs>
    <linearGradient id="healthGradient" x1="0%" y1="0%" x2="100%" y2="100%">
      <stop offset="0%" style="stop-color:#10b981;stop-opacity:1" />
      <stop offset="100%" style="stop-color:#3b82f6;stop-opacity:1" />
    </linearGradient>
  </defs>
  
  <!-- Heart shape with pulse -->
  <path d="M50 85 C30 70, 15 55, 15 40 C15 25, 25 15, 35 15 C42 15, 47 20, 50 25 C53 20, 58 15, 65 15 C75 15, 85 25, 85 40 C85 55, 70 70, 50 85 Z" 
        fill="url(#healthGradient)" 
        stroke="#fff" 
        stroke-width="2"/>
  
  <!-- AI circuit pattern -->
  <circle cx="50" cy="45" r="8" fill="#fff" opacity="0.9"/>
  <circle cx="35" cy="35" r="4" fill="#fff" opacity="0.8"/>
  <circle cx="65" cy="35" r="4" fill="#fff" opacity="0.8"/>
  <line x1="50" y1="45" x2="35" y2="35" stroke="#fff" stroke-width="2" opacity="0.7"/>
  <line x1="50" y1="45" x2="65" y2="35" stroke="#fff" stroke-width="2" opacity="0.7"/>
</svg>
